<?xml version="1.0" encoding="UTF-8"?>
<!DOCTYPE svg PUBLIC "-//W3C//DTD SVG 1.1//EN" "http://www.w3.org/Graphics/SVG/1.1/DTD/svg11.dtd">
<!-- Creator: CorelDRAW X7 -->
<svg xmlns="http://www.w3.org/2000/svg" xml:space="preserve" width="2219.65mm" height="230.207mm" version="1.1" style="shape-rendering:geometricPrecision; text-rendering:geometricPrecision; image-rendering:optimizeQuality; fill-rule:evenodd; clip-rule:evenodd"
viewBox="0 0 358545 37186"
 xmlns:xlink="http://www.w3.org/1999/xlink">
 <defs>
  <style type="text/css">
   <![CDATA[
    .fil6 {fill:none}
    .fil4 {fill:#FEFEFE}
    .fil9 {fill:#FEFEFE}
    .fil2 {fill:#332C2B}
    .fil1 {fill:#FFF000}
    .fil0 {fill:#E62129}
    .fil8 {fill:#332C2B;fill-rule:nonzero}
    .fil5 {fill:#FFF000;fill-rule:nonzero}
    .fil7 {fill:#DFCD00;fill-rule:nonzero}
    .fil3 {fill:url(#id0)}
   ]]>
  </style>
  <linearGradient id="id0" gradientUnits="userSpaceOnUse" x1="13128.6" y1="2507.1" x2="13128.6" y2="27602.9">
   <stop offset="0" style="stop-opacity:1; stop-color:#009B4C"/>
   <stop offset="1" style="stop-opacity:1; stop-color:#ACCE22"/>
  </linearGradient>
 </defs>
 <g id="Layer_x0020_1">
  <metadata id="CorelCorpID_0Corel-Layer"/>
  <g id="Logo_Kota_Surakarta_x0020_-_x0020_Koleksilogo.com.cdr">
   <path class="fil0" d="M13112 37186c3633,-1332 6892,-3288 9316,-6638 1272,-1757 2520,-3864 3235,-6504 564,-2085 562,-4053 562,-6184 0,-5761 0,-12099 0,-17860 -8742,0 -17483,0 -26225,0 0,5761 0,12099 0,17860 0,2131 -2,4099 562,6184 714,2640 1963,4747 3235,6504 2424,3350 5683,5306 9315,6638z"/>
   <path class="fil1" d="M13112 36879c3647,-1351 6769,-3303 9083,-6500 1432,-1978 2549,-4040 3190,-6410 549,-2033 552,-4023 552,-6109 0,-5665 0,-11907 0,-17572 -8550,0 -17099,0 -25649,0 0,5665 0,11907 0,17572 0,2086 3,4076 552,6109 641,2370 1758,4432 3190,6410 2314,3197 5436,5149 9082,6500z"/>
   <path class="fil2" d="M13112 36264c3456,-1309 6417,-3184 8616,-6223 1387,-1916 2480,-3929 3100,-6223 531,-1961 533,-3943 533,-5958 0,-5473 0,-11523 0,-16996 -4083,0 -8166,0 -12249,0 -4082,0 -8165,0 -12248,0 0,5473 0,11523 0,16996 0,2015 2,3997 532,5958 621,2294 1714,4307 3101,6223 2199,3039 5160,4914 8615,6223z"/>
   <path class="fil0" d="M13129 1816c5698,0 10317,5927 10317,13239 0,7312 -4619,13239 -10317,13239 -5699,0 -10318,-5927 -10318,-13239 0,-7312 4619,-13239 10318,-13239z"/>
   <path class="fil1" d="M13129 2161c5507,0 9972,5773 9972,12894 0,7121 -4465,12894 -9972,12894 -5508,0 -9972,-5773 -9972,-12894 0,-7121 4464,-12894 9972,-12894z"/>
   <path class="fil3" d="M13129 2507c5316,0 9626,5618 9626,12548 0,6930 -4310,12548 -9626,12548 -5317,0 -9627,-5618 -9627,-12548 0,-6930 4310,-12548 9627,-12548z"/>
   <g>
    <polygon class="fil4" points="4429,2262 4688,2995 5466,3015 4848,3488 5070,4234 4429,3793 3788,4234 4009,3488 3392,3015 4170,2995 "/>
    <polygon class="fil4" points="21796,2262 22055,2995 22833,3015 22215,3488 22437,4234 21796,3793 21155,4234 21377,3488 20759,3015 21537,2995 "/>
   </g>
   <path class="fil5" d="M20055 23767c-275,-133 -533,-245 -671,-247 -150,-1 -373,121 -605,249 -296,164 -606,334 -905,326 -282,-8 -531,-162 -783,-317 -226,-140 -455,-281 -669,-281 -211,0 -424,142 -634,281 -237,157 -470,312 -748,317 -297,6 -521,-156 -740,-313 -166,-120 -329,-237 -482,-236 -234,3 -452,157 -670,312 -124,87 -247,175 -383,244l-76 39 -75 -39c-136,-69 -260,-157 -384,-244 -218,-155 -436,-309 -669,-312 -154,-1 -317,116 -483,236 -219,157 -443,319 -740,313 -278,-5 -511,-160 -748,-317 -209,-139 -423,-281 -634,-281 -213,0 -442,141 -668,281 -253,155 -502,309 -783,317 -307,8 -546,-152 -775,-305 -168,-112 -330,-220 -472,-219 -54,1 -113,13 -174,33 -58,-81 -115,-162 -171,-245 114,-43 228,-71 341,-72 247,-3 449,132 660,273 187,125 382,256 582,250 189,-5 402,-136 617,-269 266,-164 535,-330 843,-330 312,0 567,170 817,336 198,131 392,260 571,263 185,4 365,-126 542,-253 209,-151 413,-298 677,-295 339,3 599,187 858,370 89,64 179,127 268,180 90,-53 179,-116 269,-180 259,-183 518,-367 857,-370 264,-3 469,144 678,295 176,127 356,257 541,253 179,-3 374,-132 571,-263 250,-166 506,-336 817,-336 309,0 578,166 843,330 215,133 428,264 617,269 208,6 478,-143 736,-285 271,-149 530,-292 769,-289 210,2 522,138 841,292 -57,81 -114,160 -173,239zm2013 -4052c-28,93 -57,184 -87,275 -163,-60 -342,-136 -525,-214 -412,-174 -842,-357 -1057,-359 -186,-1 -450,124 -724,254 -339,161 -694,329 -1028,321 -314,-7 -599,-159 -887,-312 -267,-142 -538,-286 -799,-286 -260,0 -512,145 -760,287 -271,154 -537,306 -846,311 -329,6 -584,-153 -833,-308 -198,-122 -391,-242 -586,-240 -285,2 -543,159 -800,317l-1 0c-142,87 -284,173 -441,242l-67 30 -67 -30c-158,-69 -300,-155 -442,-242l0 0c-258,-158 -515,-315 -801,-317 -194,-2 -388,118 -585,240 -250,155 -505,314 -834,308 -309,-5 -575,-157 -845,-311 -248,-142 -501,-287 -760,-287 -262,0 -532,144 -799,286 -289,153 -574,305 -888,312 -340,8 -613,-149 -874,-299 -200,-115 -393,-226 -573,-224 -211,2 -475,124 -729,243l0 0c-72,33 -142,66 -212,96 -29,-93 -57,-186 -85,-279 51,-23 103,-47 156,-72l0 0c285,-132 581,-270 868,-273 271,-3 501,130 741,268 222,128 454,261 701,256 233,-6 484,-139 738,-275 304,-161 611,-324 956,-324 348,0 639,166 924,329 235,135 465,266 686,270 231,3 445,-129 654,-259 239,-148 472,-293 763,-290 378,3 674,184 970,365l0 -1c113,69 225,138 337,192 111,-54 224,-123 336,-192l0 1c296,-181 592,-362 971,-365 291,-3 524,142 762,290 209,130 423,262 654,259 222,-4 452,-135 686,-270 285,-163 577,-329 925,-329 344,0 652,163 955,324 254,136 506,269 739,275 254,6 572,-146 877,-290 309,-147 605,-288 870,-285 283,3 743,197 1184,384 170,72 336,143 482,198zm-485 1344c-37,89 -76,178 -115,266 -86,-37 -175,-76 -265,-115 -399,-174 -816,-356 -1021,-358 -180,-2 -434,123 -699,252 -330,162 -676,331 -1002,323 -306,-8 -584,-160 -864,-314 -258,-141 -520,-284 -772,-284 -249,0 -493,144 -733,285 -263,155 -522,308 -825,313 -321,5 -570,-154 -813,-309 -190,-122 -377,-242 -563,-240 -274,3 -524,159 -773,316 -139,87 -278,175 -429,243l-69 31 -69 -31c-151,-68 -290,-156 -428,-243l0 0c-250,-157 -499,-313 -774,-316 -186,-2 -372,118 -563,240 -243,155 -492,314 -813,309 -303,-5 -561,-158 -825,-313 -239,-141 -484,-285 -733,-285 -252,0 -513,143 -771,284 -281,154 -558,306 -865,314 -333,8 -599,-150 -853,-301 -193,-115 -379,-225 -551,-223 -199,2 -447,119 -687,234 -38,-89 -75,-178 -111,-268 262,-126 533,-248 795,-251 266,-2 490,131 723,269 215,128 439,261 676,255 224,-5 467,-138 713,-273 295,-162 595,-326 931,-326 340,0 624,167 902,331 226,133 448,265 661,268 221,4 428,-128 630,-258 232,-148 459,-293 744,-291 369,4 658,185 946,366l0 0c107,67 215,135 322,189 108,-54 215,-121 321,-189 289,-181 577,-362 947,-366 285,-2 512,143 744,291 202,130 409,262 631,258 212,-3 434,-135 661,-268 278,-164 561,-331 901,-331 337,0 636,164 931,326 246,135 489,268 713,273 245,6 553,-145 847,-289 301,-147 590,-288 848,-286 278,3 725,198 1153,385 83,37 166,73 246,107zm-557 1171c-46,86 -93,171 -141,255 -337,-149 -666,-285 -839,-287 -174,-1 -423,123 -683,252 -324,162 -663,331 -985,323 -303,-7 -575,-160 -851,-314 -252,-141 -508,-284 -753,-284 -243,0 -482,144 -717,285l0 0c-259,155 -514,308 -812,313 -317,6 -562,-154 -800,-309 -187,-122 -370,-241 -550,-239 -268,2 -512,159 -756,315 -137,88 -274,176 -420,243l-71 32 -70 -32c-146,-67 -283,-155 -420,-243 -244,-156 -488,-313 -756,-315 -180,-2 -363,117 -550,239 -238,155 -483,315 -800,309 -298,-5 -553,-158 -812,-313l0 0c-235,-141 -474,-285 -717,-285 -245,0 -501,143 -753,284 -276,154 -549,307 -851,314 -329,8 -590,-149 -840,-301 -189,-114 -371,-224 -538,-222 -82,0 -174,22 -269,55 -47,-85 -92,-170 -137,-257 135,-49 271,-82 404,-83 262,-3 483,131 712,269 210,128 429,260 660,255 218,-6 456,-139 696,-273 291,-162 585,-326 916,-326 336,0 615,167 888,331l0 1c221,133 438,263 645,267 216,3 418,-128 616,-257 228,-149 451,-295 732,-292 365,4 648,185 932,367 103,66 207,132 312,187 106,-55 210,-121 313,-187 284,-182 567,-363 932,-367 281,-3 504,143 732,292 198,129 400,260 616,257 207,-4 424,-134 645,-267l0 -1c273,-164 552,-331 888,-331 331,0 625,164 916,326 240,134 478,267 696,273l0 0c238,6 540,-145 828,-289 296,-147 580,-289 835,-286 239,2 607,153 977,316z"/>
   <path class="fil4" d="M6776 24481c795,-315 1807,-775 2496,-763 0,-605 0,-1297 0,-1946 0,-447 47,-555 -250,-894 -332,-380 -546,-753 -685,-1160 314,0 628,0 941,0 487,0 871,-312 1312,-470 387,-139 777,-225 1162,-299 0,-3710 0,-7601 0,-11311 0,-300 -10,-443 171,-700 283,-402 703,-706 1044,-927l-6 -354c-697,-410 -181,-1424 168,-1889 348,465 864,1479 167,1889l-6 354c341,221 761,525 1044,927 182,257 171,400 171,700 0,3710 0,7601 0,11311 386,74 775,160 1162,299 441,158 825,470 1312,470 314,0 628,0 941,0 -139,407 -353,780 -685,1160 -296,339 -250,447 -250,894 0,649 0,1341 0,1946 690,-12 1701,448 2497,763 -1696,1943 -3919,3122 -6353,3122 -2435,0 -4658,-1179 -6353,-3122z"/>
   <path class="fil0" d="M13032 7258c-177,1298 221,1626 150,2353 -34,353 -45,700 41,1103 144,844 69,1286 22,2091 -43,746 65,1083 231,1757 156,638 195,1363 695,1968 -652,0 -1304,0 -1956,0 867,-1334 230,-2522 384,-3888 73,-639 309,-1512 173,-2402 -67,-442 179,-802 70,-1280 -120,-521 -49,-1234 190,-1702zm361 9387l0 1374c9,391 -66,595 -490,668 -456,79 -952,-322 -606,-742 114,-139 253,-91 421,-14 177,81 125,-162 131,-680l-2 -606 546 0z"/>
   <path class="fil5" d="M12775 29084c129,0 246,52 331,137 85,84 137,201 137,331 0,118 -44,227 -117,309 80,-64 182,-102 292,-102 129,0 246,53 331,137 84,85 137,202 137,331 0,47 -7,91 -19,133 70,-42 153,-66 240,-66 130,0 247,52 331,137 85,84 138,201 138,331 0,114 -41,218 -109,299 81,-67 185,-107 299,-107 72,0 141,16 202,45 -47,-73 -75,-160 -75,-253 0,-111 39,-213 104,-294 -72,45 -156,71 -247,71 -129,0 -246,-53 -331,-137 -84,-85 -137,-202 -137,-331 0,-130 53,-247 137,-331 85,-85 202,-138 331,-138 129,0 247,53 331,138 85,84 137,201 137,331 0,111 -39,213 -103,293 71,-44 156,-70 246,-70 130,0 247,52 331,137 85,85 138,202 138,331 0,129 -53,246 -138,331 -84,85 -201,137 -331,137 -72,0 -140,-16 -201,-45 47,72 74,159 74,253 0,129 -52,246 -137,331 -85,84 -202,137 -331,137 -129,0 -246,-53 -331,-137 -85,-85 -137,-202 -137,-331 0,-114 41,-219 108,-300 -81,67 -185,108 -299,108 -129,0 -246,-53 -331,-137 -84,-85 -137,-202 -137,-331 0,-46 7,-91 20,-133 -71,42 -153,66 -241,66 -129,0 -246,-52 -331,-136 30,61 46,130 46,203 0,97 -29,187 -80,262 76,-54 170,-86 271,-86 129,0 246,52 331,137 84,85 137,202 137,331 0,129 -53,246 -137,331 -85,85 -202,137 -331,137 -129,0 -247,-52 -331,-137 -85,-85 -137,-202 -137,-331 0,-97 29,-187 80,-262 -76,54 -170,86 -271,86 -129,0 -246,-53 -331,-137 -84,-85 -137,-202 -137,-331 0,-117 43,-224 114,-307 -70,43 -153,68 -241,68 -71,0 -139,-16 -199,-45 26,58 40,122 40,189 0,130 -53,247 -137,331l-6 6c55,-22 114,-35 176,-35 130,0 247,53 331,137 85,85 137,202 137,331 0,130 -52,247 -137,331 -84,85 -201,138 -331,138 -129,0 -246,-53 -331,-138 -84,-84 -137,-201 -137,-331 0,-129 53,-246 137,-331l6 -5c-55,22 -114,34 -176,34 -70,0 -135,-15 -195,-42 52,76 83,167 83,266 0,129 -53,246 -137,331 -85,85 -202,137 -331,137 -129,0 -247,-52 -331,-137 -85,-85 -137,-202 -137,-331 0,-129 52,-246 137,-331 84,-85 202,-137 331,-137 69,0 135,15 194,42 -52,-75 -82,-167 -82,-266 0,-129 52,-246 137,-331 84,-84 202,-137 331,-137 71,0 138,16 198,44 -25,-57 -39,-121 -39,-189 0,-129 52,-246 137,-330 84,-85 202,-138 331,-138 91,0 177,27 249,72 -8,-34 -12,-70 -12,-106 0,-130 52,-247 137,-331 85,-85 202,-137 331,-137zm-3527 2121c129,0 247,53 331,137 85,85 137,202 137,331 0,129 -52,247 -137,331 -84,85 -202,137 -331,137 -129,0 -246,-52 -331,-137 -84,-84 -137,-202 -137,-331 0,-129 53,-246 137,-331 85,-84 202,-137 331,-137zm223 245c-57,-57 -136,-92 -223,-92 -87,0 -166,35 -223,92 -57,57 -92,136 -92,223 0,87 35,167 92,224 57,57 136,92 223,92 87,0 166,-35 223,-92 57,-57 93,-137 93,-224 0,-87 -36,-166 -93,-223zm608 -1203c129,0 246,52 331,137 85,84 137,201 137,331 0,129 -52,246 -137,331 -85,84 -202,137 -331,137 -129,0 -246,-53 -331,-137 -85,-85 -137,-202 -137,-331 0,-130 52,-247 137,-331 85,-85 202,-137 331,-137zm223 244c-57,-57 -136,-92 -223,-92 -87,0 -166,35 -223,92 -57,57 -93,136 -93,224 0,87 36,166 93,223 57,57 136,92 223,92 87,0 166,-35 223,-92 57,-57 93,-136 93,-223 0,-88 -36,-167 -93,-224zm6439 -213c129,0 246,52 331,137 85,85 137,202 137,331 0,129 -52,246 -137,331 -85,85 -202,137 -331,137 -129,0 -246,-52 -331,-137 -85,-85 -137,-202 -137,-331 0,-129 52,-246 137,-331 85,-85 202,-137 331,-137zm223 245c-57,-57 -136,-93 -223,-93 -87,0 -166,36 -223,93 -57,57 -93,136 -93,223 0,87 36,166 93,223 57,57 136,93 223,93 87,0 166,-36 223,-93 57,-57 93,-136 93,-223 0,-87 -36,-166 -93,-223zm639 619c129,0 246,53 331,137 85,85 137,202 137,331 0,130 -52,247 -137,331 -85,85 -202,137 -331,137 -129,0 -246,-52 -331,-137 -85,-84 -137,-201 -137,-331 0,-129 52,-246 137,-331 85,-84 202,-137 331,-137zm223 245c-57,-57 -136,-92 -223,-92 -87,0 -166,35 -223,92 -57,57 -93,136 -93,223 0,88 36,167 93,224 57,57 136,92 223,92 87,0 166,-35 223,-92 57,-57 93,-136 93,-224 0,-87 -36,-166 -93,-223zm-1681 1044c129,0 247,52 331,137 85,85 137,202 137,331 0,129 -52,246 -137,331 -84,85 -202,137 -331,137 -129,0 -246,-52 -331,-137 -84,-85 -137,-202 -137,-331 0,-129 53,-246 137,-331 85,-85 202,-137 331,-137zm224 245c-58,-57 -137,-93 -224,-93 -87,0 -166,36 -223,93 -57,57 -92,136 -92,223 0,87 35,166 92,223 57,57 136,93 223,93 87,0 166,-36 224,-93 57,-57 92,-136 92,-223 0,-87 -35,-166 -92,-223zm560 431c129,0 246,52 331,137 85,84 137,202 137,331 0,129 -52,246 -137,331 -85,84 -202,137 -331,137 -129,0 -246,-53 -331,-137 -85,-85 -137,-202 -137,-331 0,-129 52,-247 137,-331 85,-85 202,-137 331,-137zm223 245c-57,-57 -136,-93 -223,-93 -87,0 -166,36 -223,93 -57,57 -93,136 -93,223 0,87 36,166 93,223 57,57 136,92 223,92 87,0 166,-35 223,-92 57,-57 93,-136 93,-223 0,-87 -36,-166 -93,-223zm326 -1157c129,0 246,53 331,137 84,85 137,202 137,331 0,130 -53,247 -137,331 -85,85 -202,137 -331,137 -130,0 -247,-52 -331,-137 -85,-84 -137,-201 -137,-331 0,-87 23,-169 65,-239 -6,7 -12,14 -19,20 -84,85 -202,137 -331,137 -129,0 -246,-52 -331,-137 -84,-84 -137,-202 -137,-331 0,-101 32,-195 87,-272 -75,51 -165,80 -261,80 -130,0 -247,-52 -331,-137 -85,-84 -138,-202 -138,-331 0,-129 53,-246 138,-331 84,-84 201,-137 331,-137 129,0 246,53 331,137 84,85 137,202 137,331 0,102 -32,195 -87,272 74,-50 164,-80 261,-80 129,0 247,53 331,137 85,85 137,202 137,331 0,88 -24,169 -65,239 6,-6 12,-13 19,-20 84,-84 201,-137 331,-137zm223 245c-57,-57 -136,-92 -223,-92 -88,0 -167,35 -224,92 -57,57 -92,136 -92,223 0,88 35,167 92,224 57,57 136,92 224,92 87,0 166,-35 223,-92 57,-57 92,-136 92,-224 0,-87 -35,-166 -92,-223zm-752 -550c-58,-57 -137,-92 -224,-92 -87,0 -166,35 -223,92 -57,57 -92,136 -92,223 0,87 35,167 92,224 57,57 136,92 223,92 87,0 166,-35 224,-92 57,-57 92,-137 92,-224 0,-87 -35,-166 -92,-223zm-643 -660c-57,-57 -136,-92 -223,-92 -88,0 -167,35 -224,92 -57,57 -92,136 -92,223 0,87 35,166 92,224 57,57 136,92 224,92 87,0 166,-35 223,-92 57,-58 92,-137 92,-224 0,-87 -35,-166 -92,-223zm-850 478c129,0 246,52 331,137 84,85 137,202 137,331 0,129 -53,246 -137,331 -85,85 -202,137 -331,137 -130,0 -247,-52 -331,-137 -85,-85 -138,-202 -138,-331 0,-129 53,-246 138,-331 84,-85 201,-137 331,-137zm223 245c-57,-57 -136,-93 -223,-93 -88,0 -167,36 -224,93 -57,57 -92,136 -92,223 0,87 35,166 92,223 57,57 136,93 224,93 87,0 166,-36 223,-93 57,-57 92,-136 92,-223 0,-87 -35,-166 -92,-223zm-94 -1430c-57,-57 -136,-93 -224,-93 -87,0 -166,36 -223,93 -57,57 -92,136 -92,223 0,87 35,166 92,223 57,57 136,93 223,93 88,0 167,-36 224,-93 57,-57 92,-136 92,-223 0,-87 -35,-166 -92,-223zm-612 -692c-57,-57 -136,-92 -223,-92 -87,0 -166,35 -223,92 -57,57 -92,136 -92,224 0,87 35,166 92,223 57,57 136,92 223,92 87,0 166,-35 223,-92 57,-57 93,-136 93,-223 0,-88 -36,-167 -93,-224zm-1085 -889c129,0 246,53 331,137 85,85 137,202 137,331 0,129 -52,246 -137,331 -85,85 -202,137 -331,137 -129,0 -246,-52 -331,-137 -85,-85 -137,-202 -137,-331 0,-129 52,-246 137,-331 85,-84 202,-137 331,-137zm223 245c-57,-57 -136,-92 -223,-92 -87,0 -166,35 -223,92 -57,57 -93,136 -93,223 0,87 36,166 93,223 57,57 136,93 223,93 87,0 166,-36 223,-93 57,-57 93,-136 93,-223 0,-87 -36,-166 -93,-223zm878 2011c-57,-57 -136,-92 -223,-92 -87,0 -166,35 -223,92 -57,57 -93,137 -93,224 0,87 36,166 93,223 57,57 136,92 223,92 87,0 166,-35 223,-92 57,-57 93,-136 93,-223 0,-87 -36,-167 -93,-224zm-658 -660c-57,-57 -136,-92 -224,-92 -87,0 -166,35 -223,92 -57,57 -92,136 -92,224 0,87 35,166 92,223 57,57 136,92 223,92 88,0 167,-35 224,-92 57,-57 92,-136 92,-223 0,-88 -35,-167 -92,-224zm-1264 -620c-80,64 -182,102 -292,102 -92,0 -177,-27 -249,-72 8,34 12,70 12,106 0,118 -43,225 -114,307 70,-43 153,-67 241,-67 129,0 246,52 331,136 -30,-61 -46,-130 -46,-203 0,-118 44,-227 117,-309zm574 86c-57,-57 -136,-92 -223,-92 -87,0 -166,35 -223,92 -58,57 -93,136 -93,223 0,88 35,167 93,224 57,57 136,92 223,92 87,0 166,-35 223,-92 57,-57 92,-136 92,-224 0,-87 -35,-166 -92,-223zm435 1673c129,0 246,52 331,137 85,84 137,201 137,331 0,129 -52,246 -137,331 -85,84 -202,137 -331,137 -129,0 -246,-53 -331,-137 -85,-85 -137,-202 -137,-331 0,-130 52,-247 137,-331 85,-85 202,-137 331,-137zm223 244c-57,-57 -136,-92 -223,-92 -87,0 -166,35 -223,92 -57,57 -93,136 -93,224 0,87 36,166 93,223 57,57 136,92 223,92 87,0 166,-35 223,-92 57,-57 93,-136 93,-223 0,-88 -36,-167 -93,-224zm-752 -738c-57,-57 -136,-93 -223,-93 -87,0 -167,36 -224,93 -57,57 -92,136 -92,223 0,87 35,166 92,223 57,57 137,93 224,93 87,0 166,-36 223,-93 57,-57 92,-136 92,-223 0,-87 -35,-166 -92,-223zm-658 -645c-57,-57 -136,-92 -224,-92 -87,0 -166,35 -223,92 -57,57 -92,136 -92,224 0,87 35,166 92,223 57,57 136,92 223,92 88,0 167,-35 224,-92 57,-57 92,-136 92,-223 0,-88 -35,-167 -92,-224zm-208 1107c129,0 246,53 331,137 85,85 137,202 137,331 0,129 -52,247 -137,331 -85,85 -202,137 -331,137 -129,0 -246,-52 -331,-137 -85,-84 -137,-202 -137,-331 0,-129 52,-246 137,-331 85,-84 202,-137 331,-137zm223 245c-57,-57 -136,-92 -223,-92 -87,0 -166,35 -223,92 -57,57 -93,136 -93,223 0,87 36,166 93,223 57,58 136,93 223,93 87,0 166,-35 223,-93 57,-57 93,-136 93,-223 0,-87 -36,-166 -93,-223zm-736 -676c-57,-57 -136,-92 -224,-92 -87,0 -166,35 -223,92 -57,57 -92,136 -92,223 0,88 35,167 92,224 57,57 136,92 223,92 88,0 167,-35 224,-92 57,-57 92,-136 92,-224 0,-87 -35,-166 -92,-223zm-882 541c129,0 246,53 331,137 85,85 137,202 137,331 0,129 -52,247 -137,331 -85,85 -202,137 -331,137 -71,0 -138,-16 -199,-44 26,58 40,122 40,189 0,129 -52,246 -137,331 -85,85 -202,137 -331,137 -129,0 -246,-52 -331,-137 -85,-85 -137,-202 -137,-331 0,-129 52,-246 137,-331 8,-7 15,-15 24,-22 -56,23 -116,35 -179,35 -108,0 -207,-36 -287,-97 80,83 128,196 128,321 0,116 -42,223 -113,305 17,-2 35,-3 53,-3 129,0 246,52 331,137 84,85 137,202 137,331 0,129 -53,246 -137,331 -85,85 -202,137 -331,137 -130,0 -247,-52 -331,-137 -85,-85 -137,-202 -137,-331 0,-117 42,-223 112,-305 -17,2 -34,3 -52,3 -129,0 -246,-52 -331,-137 -85,-85 -137,-202 -137,-331 0,-129 52,-246 137,-331 85,-85 202,-137 331,-137 108,0 207,36 287,98 -79,-84 -128,-197 -128,-322 0,-129 52,-246 137,-331 85,-84 202,-137 331,-137 129,0 246,53 331,137 85,85 137,202 137,331 0,130 -52,247 -137,331 -8,8 -15,15 -24,22 56,-22 116,-35 179,-35 71,0 138,16 199,44 -26,-58 -40,-122 -40,-189 0,-129 52,-246 137,-331 85,-84 202,-137 331,-137zm223 245c-57,-57 -136,-92 -223,-92 -87,0 -166,35 -223,92 -57,57 -93,136 -93,223 0,87 36,166 93,224 57,57 136,92 223,92 87,0 166,-35 223,-92 57,-58 93,-137 93,-224 0,-87 -36,-166 -93,-223zm-627 613c-57,-57 -136,-93 -223,-93 -87,0 -166,36 -223,93 -57,57 -93,136 -93,223 0,87 36,166 93,223 57,57 136,93 223,93 87,0 166,-36 223,-93 57,-57 93,-136 93,-223 0,-87 -36,-166 -93,-223zm-705 676c-57,-57 -136,-93 -223,-93 -88,0 -167,36 -224,93 -57,57 -92,136 -92,223 0,87 35,166 92,223 57,57 136,93 224,93 87,0 166,-36 223,-93 57,-57 92,-136 92,-223 0,-87 -35,-166 -92,-223zm-408 -770c-57,-57 -136,-93 -223,-93 -87,0 -166,36 -223,93 -57,57 -93,136 -93,223 0,87 36,166 93,223 57,57 136,93 223,93 87,0 166,-36 223,-93 57,-57 93,-136 93,-223 0,-87 -36,-166 -93,-223zm627 -692c-57,-57 -136,-92 -223,-92 -87,0 -166,35 -223,92 -57,57 -93,136 -93,223 0,88 36,167 93,224 57,57 136,92 223,92 87,0 166,-35 223,-92 57,-57 93,-136 93,-224 0,-87 -36,-166 -93,-223zm690 -691c-57,-57 -136,-93 -223,-93 -87,0 -166,36 -223,93 -58,57 -93,136 -93,223 0,87 35,166 93,223 57,57 136,93 223,93 87,0 166,-36 223,-93 57,-57 92,-136 92,-223 0,-87 -35,-166 -92,-223zm580 -692c-57,-57 -136,-92 -223,-92 -87,0 -167,35 -224,92 -57,57 -92,136 -92,223 0,88 35,167 92,224 57,57 137,92 224,92 87,0 166,-35 223,-92 57,-57 92,-136 92,-224 0,-87 -35,-166 -92,-223zm627 -613c-57,-57 -136,-92 -223,-92 -87,0 -166,35 -224,92 -57,57 -92,136 -92,223 0,88 35,167 92,224 58,57 137,92 224,92 87,0 166,-35 223,-92 57,-57 92,-136 92,-224 0,-87 -35,-166 -92,-223zm705 -503c-57,-57 -136,-92 -223,-92 -87,0 -166,35 -223,92 -57,57 -93,136 -93,224 0,87 36,166 93,223 57,57 136,92 223,92 87,0 166,-35 223,-92 57,-57 93,-136 93,-223 0,-88 -36,-167 -93,-224z"/>
   <g>
    <polyline class="fil6" points="7415,24200 13129,27177 18842,24200 "/>
    <polygon class="fil7" points="7449,24130 13129,27205 18808,24130 18834,24183 13129,27380 7415,24200 "/>
    <path class="fil8" d="M18668 23987c80,-68 163,-3 173,89 7,54 -18,106 -86,107 -20,0 -41,0 -61,0 201,-4 99,-258 -26,-196zm-140 76c15,39 43,78 89,116 -325,-25 -673,-191 -1047,-429 -1167,-743 -2194,-1717 -3501,-2119 -561,-172 -1071,-207 -1642,-66 -358,88 -694,221 -1016,382l0 311c314,-149 646,-272 1010,-351 547,-118 1077,-96 1617,49 1579,425 2582,1661 4116,2260 147,57 448,191 659,166 248,-31 303,-361 140,-522 -42,-43 -98,-71 -167,-74 -67,-4 -137,15 -187,51 -33,23 -59,54 -73,92l0 0c-16,41 -17,86 2,134l0 0z"/>
    <path class="fil8" d="M7589 23987c-80,-68 -163,-3 -173,90 -6,53 18,105 86,106 20,0 41,0 61,0 -201,-4 -99,-258 26,-196zm140 77c-14,38 -43,77 -88,115 325,-25 672,-191 1046,-429 1168,-743 2194,-1716 3501,-2119 560,-172 1068,-206 1638,-67l0 341c-544,-116 -1070,-93 -1607,51 -1579,425 -2581,1661 -4116,2260 -146,57 -447,192 -659,166 -248,-31 -303,-361 -140,-522 42,-43 98,-70 167,-74 67,-4 138,15 187,51 33,23 59,54 73,92l0 0c16,41 17,86 -2,134l0 1z"/>
    <path class="fil8" d="M7540 23882c33,4 66,18 97,44l-81 131c-6,-3 -12,0 -17,4l0 1c-6,5 -10,13 -12,21 -2,5 -2,10 -1,12 2,5 13,9 38,9l0 157 -24 0c-13,0 -26,0 -39,0l0 0c-7,0 -13,0 -20,-1l0 0c-49,-6 -86,-29 -110,-63 -23,-31 -33,-69 -32,-108l0 -1c0,-8 1,-15 1,-21 5,-45 23,-86 48,-118l0 0c18,-23 41,-41 65,-53 27,-13 57,-18 87,-14l0 0zm11080 44c31,-26 64,-40 97,-44l0 0c30,-4 60,1 87,14 25,12 47,30 65,53 26,32 43,73 48,118 1,5 1,13 1,21l0 1c1,39 -9,77 -32,108 -24,34 -60,57 -109,63l-1 0c-6,1 -13,1 -20,1l0 0c-13,0 -26,0 -39,0l-23 0 -1 -157c25,0 36,-4 38,-9 1,-2 1,-7 0,-12 -2,-8 -7,-16 -12,-21l-1 -1c-4,-4 -11,-7 -17,-4l-81 -131zm-21 110c5,12 12,25 23,38l0 0c11,15 25,30 43,45l-54 138c-80,-6 -160,-20 -242,-41 140,52 309,103 435,88 46,-6 83,-26 109,-54 22,-23 37,-52 46,-84 10,-33 13,-70 9,-105 -6,-54 -28,-107 -67,-145 -16,-15 -34,-28 -54,-37 -19,-8 -41,-14 -65,-15 -25,-1 -52,2 -77,8 -23,7 -45,17 -63,29 -11,8 -20,17 -28,27l0 0c-7,8 -13,18 -17,29l-2 5c-3,11 -5,21 -5,32 0,12 3,26 9,40l0 2zm-458 -64c106,46 209,81 310,103 -8,-26 -12,-53 -13,-79 0,-34 6,-66 17,-96l31 -80 12 7c16,-21 36,-39 58,-55 32,-23 70,-40 111,-51 39,-11 82,-15 123,-13 42,2 82,12 117,27 38,17 71,40 99,68 66,65 103,151 113,239 7,57 2,115 -14,169 -16,55 -44,106 -82,148 -50,53 -118,90 -201,101 -207,25 -477,-84 -642,-150l0 0 -52 -21 0 0c-704,-275 -1295,-680 -1879,-1081l0 0c-694,-477 -1380,-948 -2230,-1176 -265,-71 -527,-112 -789,-121 -25,-1 -49,-1 -73,-2l-1 0 -11 0 -1 0 -12 0c-36,0 -73,1 -110,2 -228,8 -456,41 -685,96l0 0 -8 2 -5 1 -3 1 -9 2 0 0 -8 2 -4 1 -4 1 -8 2 -1 0 -7 2 -5 1 -3 1 -9 2 -8 3 -4 1 -4 1 -16 4 -8 2 -8 2 -8 3 -17 4 -8 2 -8 3 -8 2 -16 5 -8 2 -8 2 -24 8 -8 2 -8 2 -15 5 -8 3 -8 2 -8 3 -8 2 -24 8 -8 3 -23 7 -8 3 -8 3 -8 2 -3 1 -4 2 -8 3 -39 13 -8 3 -8 3 -23 8 -7 3 -8 3 -8 3 -1 0 -6 2 -8 3 -8 3 -7 3 -8 3 0 0 -8 3 -7 3 -8 3 -7 3 -16 6 -7 3 -8 3 -7 3 -15 6 -8 3 -7 3 -8 3 -6 2 -1 1 -8 3 -7 3 -8 3 -7 3 -5 3 -3 1 -7 3 -8 3 -7 3 -8 3 -4 2 -3 1 -7 4 -8 3 -7 3 -8 3 -4 2 -3 1 -7 4 -8 3 -7 3 -8 4 -3 1 -4 2 -7 3 -8 4 -7 3 -7 3 -3 1 -5 3 -7 3 -7 3 -7 4 -8 3 -2 1 -5 2 -15 7 -7 4 -7 3 -1 1 -6 3c-509,243 -969,559 -1435,878l0 0c-584,401 -1174,806 -1878,1081l0 0 -53 21 0 0c-164,66 -435,175 -641,150 -84,-11 -151,-48 -201,-101 -39,-42 -67,-93 -83,-148 -16,-54 -20,-112 -14,-169 10,-87 47,-174 113,-239 28,-28 62,-51 100,-68 35,-15 74,-25 116,-27 42,-2 84,2 124,13 40,11 78,28 110,51 22,16 42,34 58,55l13 -7 30 80c12,30 17,62 17,96 0,26 -4,53 -13,79 101,-23 205,-57 311,-103 170,-73 347,-172 531,-288 348,-222 685,-466 1020,-708 543,-391 1082,-781 1667,-1078l0 0 24 -13 34 -17 8 -3 23 -12 7 -3 8 -4 8 -4 8 -4 15 -7 8 -4 7 -3 24 -11 7 -4 8 -4 8 -3 16 -7 7 -4 8 -4 31 -14 8 -3 8 -4 8 -3 1 -1 7 -3 7 -3 8 -4 8 -3 8 -3 3 -2 5 -2 8 -3 8 -4 8 -3 7 -3 5 -2 3 -2 8 -3 8 -3 8 -4 8 -3 7 -3 1 0 8 -4 8 -3 16 -6 8 -4 0 0 8 -3 8 -3 7 -3 8 -3 8 -3 3 -1 5 -3 8 -3 8 -3 8 -3 8 -3 5 -2 4 -1 8 -3 30 -11 2 -1 8 -3 8 -3 24 -9 0 0 8 -3 8 -3 27 -9 6 -2 8 -3 16 -6 8 -2 4 -2 4 -1 17 -6 8 -2 8 -3 6 -2 2 -1 8 -3 9 -2 8 -3 8 -3 8 -2 0 0 9 -3 8 -2 8 -3 9 -3 8 -2 2 -1 6 -2 17 -5 3 -1 5 -1 9 -3 0 0 8 -2 5 -2 3 -1 17 -5 7 -2 1 0 17 -5 8 -2 1 0 8 -3 4 -1 5 -1 8 -2 1 0 7 -2 6 -2 3 -1c31,-8 62,-16 94,-24 252,-62 494,-91 732,-89l10 0 3 0 10 0c221,2 445,31 678,88l59 14 0 1c62,16 125,34 189,53 926,285 1708,850 2498,1420 335,242 672,486 1021,708 183,116 360,215 531,288zm-6806 -1763l0 -136c-551,289 -1064,659 -1580,1031 -337,244 -676,488 -1028,713 -84,53 -167,103 -249,149 520,-252 985,-572 1446,-888l0 0c456,-314 909,-625 1411,-869zm6444 1757c-82,-46 -165,-96 -249,-149 -352,-225 -691,-469 -1028,-713 -779,-562 -1551,-1120 -2455,-1398 -49,-15 -97,-29 -145,-41l0 177c52,12 103,25 155,39 876,235 1572,713 2277,1196l0 1c461,316 926,636 1445,888zm-4030 -2339c-169,-37 -335,-60 -500,-68 -25,-1 -50,-2 -74,-3l-9 0 -3 0 -8 0 -5 0 -7 0c-45,0 -91,1 -136,3 -262,12 -523,63 -797,147 -70,22 -139,45 -207,70l-2 1 -38 13 -4 2 -3 1c-27,10 -53,20 -79,30l-2 1c-23,9 -47,19 -70,28l-7 3 -2 1 -5 2 -7 3 -28 12 -1 0 -6 3 -7 3 -7 3 -7 3 -7 3 -6 2 -1 1 -7 3 -7 3 -7 3 -7 3 -7 3 -4 2 -3 1 -7 3 -6 3 -7 3 -7 4 -7 3 -3 1 -4 2 -7 3 -14 6 -7 3 -7 4 -1 0 -5 3 -14 6 -7 3 -7 4 -7 3 0 0 -40 19 -1 1 -27 13 0 141 29 -13 6 -3 30 -13 6 -2 12 -5 4 -2 2 -1 6 -2 5 -3 6 -2 6 -3 6 -2 6 -3 0 0 6 -2 6 -3 6 -2 6 -3 6 -2 6 -3 2 -1 4 -1 6 -3 18 -7 6 -3 4 -1 2 -1 6 -2 13 -5 6 -2 6 -3 5 -2 1 0 6 -3c46,-18 93,-35 141,-52 170,-60 347,-111 533,-151 248,-54 493,-79 737,-78l1 0 10 0 3 0 8 0 5 0c192,2 385,21 579,57l0 -183zm-6113 2447c10,-13 17,-26 22,-38l1 -2c5,-14 8,-28 8,-40 0,-11 -1,-21 -5,-32l-2 -5c-4,-11 -10,-20 -16,-29l-1 0c-7,-10 -17,-19 -28,-27 -17,-12 -39,-22 -63,-29 -25,-6 -51,-9 -77,-8 -24,1 -46,7 -65,15 -20,9 -38,22 -54,37 -38,39 -61,91 -67,145 -4,36 -1,72 9,105 9,32 25,61 46,84 27,28 63,48 109,54 126,15 295,-36 436,-88 -82,21 -163,35 -243,41l-53 -138c17,-15 32,-30 43,-44l0 -1z"/>
    <g>
     <path class="fil5" d="M18668 23987c80,-68 163,-3 173,89 7,54 -18,106 -86,107 -20,0 -41,0 -61,0 201,-4 99,-258 -26,-196zm-140 76c15,39 43,78 89,116 -325,-25 -673,-191 -1047,-429 -1167,-743 -2194,-1717 -3501,-2119 -561,-172 -1071,-207 -1642,-66 -358,88 -694,221 -1016,382l0 311c314,-149 646,-272 1010,-351 547,-118 1077,-96 1617,49 1579,425 2582,1661 4116,2260 147,57 448,191 659,166 248,-31 303,-361 140,-522 -42,-43 -98,-71 -167,-74 -67,-4 -137,15 -187,51 -33,23 -59,54 -73,92l0 0c-16,41 -17,86 2,134l0 0z"/>
     <path class="fil5" d="M7589 23987c-80,-68 -163,-3 -173,90 -6,53 18,105 86,106 20,0 41,0 61,0 -201,-4 -99,-258 26,-196zm140 77c-14,38 -43,77 -88,115 325,-25 672,-191 1046,-429 1168,-743 2194,-1716 3501,-2119 560,-172 1068,-206 1638,-67l0 341c-544,-116 -1070,-93 -1607,51 -1579,425 -2581,1661 -4116,2260 -146,57 -447,192 -659,166 -248,-31 -303,-361 -140,-522 42,-43 98,-70 167,-74 67,-4 138,15 187,51 33,23 59,54 73,92l0 0c16,41 17,86 -2,134l0 1z"/>
    </g>
    <line class="fil6" x1="13277" y1="20819" x2="13277" y2= "27198" />
    <polygon class="fil1" points="13129,21154 12800,20661 13129,19515 13458,20661 "/>
    <polygon class="fil1" points="13454,25577 13454,27603 13129,27198 12804,27603 12804,25577 13129,25330 "/>
    <polygon class="fil2" points="13367,25622 13129,25440 12890,25622 12890,27356 13129,27089 13367,27356 "/>
    <path class="fil8" d="M13230 20819c0,1977 0,3953 0,5929 0,135 -9,107 -57,233 -39,104 -50,103 -91,-4 -46,-124 -55,-95 -55,-227l0 -5931 203 0z"/>
    <polygon class="fil2" points="13129,27380 12804,27200 12745,26997 13129,27205 "/>
    <g>
     <path class="fil2" d="M13948 21596l0 337c-26,-6 -52,-12 -78,-18l0 -339c26,6 52,13 78,20zm-130 -33c-26,-6 -52,-12 -78,-18l0 344c26,4 52,9 78,15l0 -341zm-130 -29c-26,-5 -52,-9 -78,-14l0 347c26,4 52,8 78,12l0 -345zm-131 -22c-25,-4 -51,-8 -77,-11l0 350c26,2 52,5 77,9l0 -348zm-130 -18c-25,-2 -51,-5 -77,-7l0 352c26,2 52,4 77,6l0 -351zm-130 -11c-25,-1 -51,-3 -77,-4l0 354c26,0 52,1 77,3l0 -353zm-130 -5c-25,0 -51,0 -77,0l0 353c26,0 52,0 77,0l0 -353zm-130 1c-26,1 -51,2 -77,4l0 352c26,-1 51,-2 77,-3l0 -353zm-130 7c-26,2 -51,5 -77,7l0 351c26,-2 51,-4 77,-6l0 -352zm-130 14c-26,3 -51,6 -77,10l0 349c26,-4 51,-7 77,-9l0 -350zm-130 19c-26,5 -51,9 -77,14l0 345c26,-4 51,-8 77,-12l0 -347zm-130 25c-26,6 -51,12 -77,18l0 341c25,-5 51,-10 77,-15l0 -344zm-130 31c-26,7 -52,14 -77,21l0 337c25,-6 51,-12 77,-18l0 -340z"/>
     <path class="fil2" d="M12310 21596c25,-7 51,-14 77,-20l0 339c-26,6 -52,12 -77,18l0 -337zm130 -33c25,-6 51,-12 77,-18l0 344c-26,4 -52,10 -77,15l0 -341zm130 -29c26,-5 51,-9 77,-14l0 347c-26,4 -51,8 -77,12l0 -345zm130 -22c26,-4 51,-8 77,-11l0 350c-26,2 -51,5 -77,9l0 -348zm130 -17c26,-3 51,-6 77,-8l0 352c-26,2 -51,4 -77,6l0 -350zm130 -12c26,-1 51,-3 77,-4l0 354c-26,0 -51,1 -77,3l0 -353zm130 -5c26,0 51,0 77,0l0 353c-25,0 -51,0 -77,0l0 -353zm130 1c26,1 52,2 77,4l0 352c-25,-1 -51,-2 -77,-3l0 -353zm130 7c26,2 52,5 77,8l0 350c-25,-2 -51,-4 -77,-6l0 -352zm130 14c26,3 52,7 77,11l0 348c-25,-3 -51,-7 -77,-9l0 -350zm130 19c26,5 52,9 78,14l0 346c-26,-5 -52,-9 -78,-13l0 -347zm130 25c26,6 52,12 78,18l0 341c-26,-5 -52,-10 -78,-15l0 -344z"/>
    </g>
    <path class="fil1" d="M13173 20878l-88 0 0 5872c0,114 7,96 44,198 36,-102 44,-85 44,-200 0,-1956 0,-3913 0,-5870z"/>
    <path class="fil2" d="M13129 20997c78,-117 156,-235 234,-352l-234 -816c-78,272 -157,544 -235,816 78,117 157,235 235,352z"/>
   </g>
   <path class="fil1" d="M16615 30476c-284,-1818 831,-1853 1199,-2598 75,866 -973,1500 -1199,2598zm6622 -8594c1258,-693 678,-1380 932,-1955 -566,366 -386,1298 -932,1955zm-350 1417c-939,-1313 134,-1555 221,-2187 390,637 -401,1317 -221,2187zm-269 862c1561,-622 988,-1505 1367,-2136 -712,343 -638,1451 -1367,2136zm-268 947c-1024,-1248 32,-1561 77,-2197 430,610 -314,1340 -77,2197zm-1140 944c-840,-1320 257,-1545 395,-2172 340,639 -507,1304 -395,2172zm1048 -192c1619,-452 1143,-1391 1587,-1978 -744,265 -789,1375 -1587,1978zm-2653 2394c-522,-1810 601,-1816 877,-2544 189,860 -790,1461 -877,2544zm1906 -726c1667,-215 1331,-1212 1855,-1729 -774,155 -979,1247 -1855,1729zm-1199 -10c595,-1372 1166,-1509 1914,-1896 -243,740 -971,1442 -1914,1896zm-879 1775c595,-1372 1166,-1508 1914,-1896 -243,740 -971,1442 -1914,1896zm268 75c1932,125 1863,-1046 2608,-1502 -914,3 -1479,1161 -2608,1502zm-881 923c1761,467 1911,-627 2682,-912 -845,-164 -1577,803 -2682,912zm-1254 850c1643,788 1994,-259 2806,-395 -800,-319 -1700,494 -2806,395zm-266 -552c518,-1579 1429,-1150 2031,-1598 -295,728 -1399,807 -2031,1598zm786 -1295c-284,-1863 831,-1723 1199,-2410 76,878 -973,1347 -1199,2410z"/>
   <g>
    <g>
     <path class="fil4" d="M2308 1282c-548,114 -1031,375 -1203,1343l0 3729 1203 0c0,-1691 0,-3381 0,-5072z"/>
     <polygon class="fil4" points="2308,6163 1105,6163 1105,11235 2308,11235 "/>
     <polygon class="fil2" points="2078,6402 1336,6402 1336,10997 2078,10997 "/>
     <polygon class="fil4" points="2308,10974 1105,10974 1105,16046 2308,16046 "/>
     <polygon class="fil2" points="2078,11212 1336,11212 1336,15807 2078,15807 "/>
     <polygon class="fil4" points="2308,15784 1105,15784 1105,20856 2308,20856 "/>
     <polygon class="fil2" points="2078,16023 1336,16023 1336,20617 2078,20617 "/>
     <path class="fil2" d="M1336 2526c457,-179 556,-455 742,-1015 -421,163 -646,509 -742,1015z"/>
     <path class="fil2" d="M2078 1802c-132,667 -412,789 -742,878l0 3435 742 0c0,-1531 0,-2781 0,-4313z"/>
    </g>
    <g>
     <path class="fil4" d="M23917 1282c548,114 1031,375 1203,1343l0 3729 -1203 0c0,-1691 0,-3381 0,-5072z"/>
     <polygon class="fil4" points="23917,6163 25120,6163 25120,11235 23917,11235 "/>
     <polygon class="fil2" points="24147,6402 24889,6402 24889,10997 24147,10997 "/>
     <polygon class="fil4" points="23917,10974 25120,10974 25120,16046 23917,16046 "/>
     <polygon class="fil2" points="24147,11212 24889,11212 24889,15807 24147,15807 "/>
     <polygon class="fil4" points="23917,15784 25120,15784 25120,20856 23917,20856 "/>
     <polygon class="fil2" points="24147,16023 24889,16023 24889,20617 24147,20617 "/>
     <path class="fil2" d="M24889 2526c-457,-179 -556,-455 -742,-1015 420,163 645,509 742,1015z"/>
     <path class="fil2" d="M24147 1802c132,667 412,789 742,878l0 3435 -742 0c0,-1531 0,-2781 0,-4313z"/>
    </g>
   </g>
   <path class="fil5" d="M7403 28809c-28,-74 -42,-158 -39,-243 4,-77 23,-156 61,-230l36 -68 75 16c102,22 199,71 292,141l18 13c-10,-85 -17,-174 -21,-266 -9,-217 2,-447 33,-666l19 -131 122 53c122,53 240,153 345,284 67,82 130,178 186,282 40,-80 89,-153 179,-219l50 -37 55 28c114,57 201,140 266,244 63,101 104,221 128,356l-200 35c-20,-111 -52,-206 -100,-284 -34,-54 -76,-100 -127,-136 -48,52 -76,115 -106,183 -17,38 -35,77 -53,113l-99 190 -85 -197c-71,-165 -157,-314 -252,-431 -47,-59 -96,-109 -146,-149 -26,280 -92,808 -21,1063 -146,-77 -295,-180 -443,-244 -5,22 -8,44 -9,66 -3,57 7,113 26,164l-190 70zm-4820 -9020c-46,-11 -279,-41 -312,0 -33,42 -86,85 -15,156 9,9 54,29 62,47 36,83 -295,44 -156,218 56,70 192,54 250,47 37,-5 230,16 234,-16 11,-85 -39,-63 -31,-124 6,-49 135,-17 124,-141 -4,-51 -126,-140 -156,-187zm-62 905l-219 0c-99,0 -148,70 -78,156 69,85 -57,86 -62,125 -11,86 -2,155 62,187 55,28 110,34 156,63 59,36 51,78 141,78 96,0 25,-152 109,-172 70,-16 157,-47 188,-78 78,-79 57,-182 -47,-234 -52,-26 -117,9 -125,-62 -7,-58 -59,-63 -125,-63zm671 1702c36,-205 70,-380 16,-562 -62,-208 -313,67 -359,93 -55,31 -171,-187 -234,-187 -276,0 -344,168 -344,422 0,152 -204,295 -125,421 94,151 573,422 609,141 5,-41 82,-99 149,-136 -50,226 -176,420 -73,711 -225,12 -340,131 -565,142 260,255 100,299 741,553 -230,75 -451,6 -588,287 401,258 227,589 1156,492 -211,-164 -462,-311 -415,-589 51,-76 124,-155 242,-243 -150,-340 -191,-612 -121,-815 643,236 511,243 415,919 129,-228 265,-433 450,-468 85,336 33,631 -156,884 760,-136 628,-387 778,-1104 -185,-35 -318,-152 -626,-104 139,-69 113,-364 159,-474 -271,-17 -459,-179 -813,-52 -95,-155 -259,-163 -415,-187 90,-17 120,-46 119,-144zm1113 3954c111,-145 225,-296 69,-472 -105,-119 -367,-264 -559,-167 -129,64 -268,-30 -422,29 -159,62 -147,105 -147,285 0,113 -68,146 -68,275 0,114 192,137 196,167 32,246 -94,239 157,364 241,121 467,41 588,-108 91,-112 136,-69 235,-138 147,-101 -49,-174 -49,-235zm608 -1406c-232,-88 -363,-3 -363,226l0 216c0,98 69,108 157,108 29,0 49,293 157,335 396,152 342,-276 520,-276 270,0 392,-162 461,-432 43,-172 -265,-155 -363,-167 -39,-5 37,-264 10,-335 -88,-221 -385,-141 -549,-98 -105,27 -198,370 -30,423zm-1233 168c169,39 324,55 482,141 -17,-176 9,-355 99,-510l176 102c-145,248 -47,521 7,780 -255,-87 -437,-252 -710,-297 -35,-5 -69,-11 -99,-18l45 -198zm5117 6438c-55,-290 168,-721 371,-927 196,-200 528,-393 870,-375l-107 188c-238,38 -452,159 -619,329 -175,178 -298,408 -344,654l-171 131zm1339 -1740c-60,-5 -108,-13 -153,-19 -127,-20 -229,-35 -501,39 5,-275 178,-403 202,-685 -71,3 -143,12 -214,31 -102,28 -204,77 -306,160l-114 92 -46 -139 -142 -423c-53,53 -102,113 -146,184 -73,121 -130,275 -157,481l-28 226 -149 -172c-253,-295 -530,-329 -808,-341 -12,113 -6,215 25,301 37,100 111,181 236,237l180 80 -169 100c-94,56 -99,107 -104,156 -2,23 -5,45 -9,68 72,35 151,58 236,72 119,20 251,23 389,14l214 -14 -126 175c-109,150 -206,303 -265,471 -52,149 -75,315 -50,509 36,6 78,3 123,-6 77,-16 164,-50 256,-97l91 181c-107,54 -210,95 -307,114 -107,22 -206,18 -294,-19l-50 -22 -10 -54c-45,-259 -19,-477 50,-673 44,-128 107,-246 179,-358 -81,-2 -159,-8 -233,-21 -141,-23 -271,-68 -386,-142l-90 -58 62 -86c13,-18 16,-45 18,-74 7,-67 14,-137 76,-209 -101,-74 -168,-167 -207,-275 -53,-144 -54,-311 -23,-492l15 -87 88 3 15 0c300,11 600,23 890,272 36,-145 88,-265 149,-365 88,-144 194,-248 303,-336l114 -91 46 138 147 440c88,-55 176,-92 265,-116 125,-33 249,-41 373,-37l95 3 3 94c5,146 -19,285 -79,415 -19,40 -41,80 -67,119 108,-9 184,3 270,16 42,6 87,13 139,17l-16 203zm-3455 -2797c-107,200 -65,283 -65,531 0,341 415,611 691,335 105,-106 233,-12 313,-76 174,-139 309,-941 -130,-941 -164,0 -61,122 -183,-76 -91,-147 -276,-81 -367,-11 -42,32 -270,217 -259,238zm-918 1635c-425,-99 -160,38 -291,270 -60,106 -411,-54 -411,282 0,230 356,73 259,227 -140,225 229,249 346,249 147,0 246,-74 259,-217 7,-74 200,-5 281,-97 68,-78 -22,-250 32,-271 190,-72 345,-55 345,-292 0,-116 -98,-238 -194,-260 -142,-32 -112,69 -129,-86 -35,-304 -519,-220 -497,195zm407 1866c306,125 530,-105 696,-96 -91,319 -14,653 128,942 106,-48 193,-107 260,-179l0 0c82,-88 138,-197 166,-326l0 -1 100 21 99 22c-36,165 -108,306 -217,422l0 0c-107,114 -248,203 -421,265l-83 30 -41 -78c-83,-158 -155,-317 -194,-483 -25,-108 -37,-217 -29,-329 -50,17 -102,29 -155,36 -122,14 -251,-3 -386,-59l38 -94 39 -93zm-460 -2777c169,39 323,55 482,141 -18,-176 8,-355 99,-510l175 102c-144,248 -47,521 7,780 -254,-87 -437,-252 -710,-297 -35,-5 -68,-11 -99,-18l46 -198zm-252 188c-31,64 -77,119 -144,162 34,55 56,115 65,181 14,107 -8,226 -66,354l-30 66 -72 -7c-178,-16 -311,-60 -411,-123 -68,-43 -120,-94 -161,-152 -46,27 -94,49 -145,66 -87,29 -180,43 -281,39l-60 -2 -27 -54c-39,-78 -66,-168 -78,-262 -7,-51 -9,-104 -6,-157 -94,-5 -167,-17 -235,-50l0 0c-95,-46 -167,-124 -259,-266l-62 -95 102 -51c49,-24 83,-43 114,-60 108,-60 178,-99 288,-96 -3,-86 0,-152 14,-215 20,-94 60,-169 128,-272l36 -55 64 10c98,15 192,46 277,101 39,25 75,55 110,90 50,-52 119,-79 185,-105 36,-14 70,-27 86,-42l101 -87 57 121c70,147 103,269 101,396 -1,46 -6,92 -15,139 93,-22 197,-15 314,31l64 25 0 70c0,106 -9,209 -54,300zm-338 28c85,-25 131,-67 156,-117 19,-39 28,-86 31,-138 -200,-45 -204,-58 -396,19 57,-130 34,-265 36,-360 0,-65 -13,-132 -40,-207l-29 11c-147,58 -198,70 -288,159 -44,-79 -133,-125 -191,-163 -41,-26 -86,-45 -134,-57 -33,53 -53,97 -63,145 -14,66 -12,150 0,282l12 139 -136 -32c-124,-28 -177,1 -278,57l-18 10c40,53 75,84 113,102l0 0c58,28 138,33 262,34l122 2 -24 120c-14,68 -15,139 -7,208 7,49 18,97 35,141 52,-3 101,-13 147,-28 65,-22 126,-56 185,-99l102 -75 51 116c28,65 72,122 140,165 61,38 141,67 247,83 22,-65 30,-124 23,-175 -9,-64 -41,-120 -96,-169l-136 -121 174 -52zm177 -957c-147,-44 -232,-123 -280,-222l0 0c-44,-92 -54,-195 -54,-301l0 -69 64 -25c121,-48 227,-54 323,-29l16 5c-5,-73 0,-145 12,-216 26,-147 85,-289 151,-429l57 -121 101 88 4 4c68,59 141,122 189,221 28,-25 56,-47 86,-66l0 -1c85,-55 179,-85 277,-100l64 -10 36 54c69,103 108,178 128,272 14,63 17,130 14,215 110,-2 180,36 288,96 31,17 65,37 114,61l102 51 -62 95c-92,142 -164,220 -259,266l0 0c-69,33 -141,45 -234,50 2,53 0,105 -7,156 -12,94 -39,185 -78,263l-27 53 -60 3c-101,4 -194,-10 -281,-40 -86,-28 -165,-72 -240,-127l119 -163c59,43 120,77 185,98 47,16 95,25 147,29 17,-44 28,-92 35,-141 9,-69 7,-141 -7,-209l-24 -119 122 -2c125,-2 204,-6 262,-34l0 0c38,-18 73,-50 114,-102l-19 -11c-101,-55 -153,-85 -278,-56l-136 31 13 -139c11,-132 13,-215 -1,-281 -10,-48 -30,-92 -63,-146 -48,13 -93,31 -134,58l0 0c-58,37 -110,93 -154,173 -79,-108 -133,-185 -268,-252 -34,83 -61,165 -76,247 -21,118 -15,237 37,357 -204,-13 -240,-31 -447,16 3,51 12,99 31,138l1 0c24,50 71,91 155,116l-58 195zm529 3408c-36,-104 -51,-201 -47,-297 4,-96 27,-188 66,-283l22 -57 61 -6c38,-5 66,-8 93,-12 141,-19 280,-37 427,-5 -8,-42 -12,-80 -14,-119 -4,-94 8,-183 32,-294l14 -65 64 -14c96,-20 190,-14 277,8 100,26 190,75 263,130l-122 162c-54,-41 -120,-77 -192,-96 -38,-10 -78,-15 -119,-13 -39,222 79,304 48,594 -165,-90 -483,-110 -652,-87l-34 4c-18,55 -29,108 -31,161 -4,71 8,143 35,223l-191 66z"/>
  </g>
  <path class="fil9" d="M42418 29237l-3529 0 0 -21348 3934 0c1536,0 2616,115 3239,349 620,234 1147,632 1581,1194 508,652 897,1468 1164,2443 266,980 398,2065 398,3259 0,1274 -132,2394 -395,3359 -264,971 -652,1762 -1167,2384 -388,468 -848,801 -1375,1005 -527,204 -1372,308 -2533,308l-639 0 -678 0 0 7047zm0 -11734l717 0c903,0 1532,-194 1889,-577 357,-383 537,-1035 537,-1961 0,-895 -177,-1532 -527,-1910 -350,-379 -974,-568 -1864,-568l-752 0 0 5016zm9259 11734l0 -21348 8446 0 0 4688 -4782 0 0 3702 4509 0 0 4568 -4509 0 0 3613 4782 0 0 4777 -8446 0zm27308 0l-3513 0 -807 -9231c-57,-652 -109,-1373 -157,-2175 -45,-796 -90,-1666 -125,-2607 -90,906 -261,2030 -518,3384 -58,278 -99,487 -125,627l-1870 10002 -2507 0 -1871 -10002c-25,-140 -64,-349 -115,-627 -264,-1354 -434,-2473 -518,-3369 -35,806 -80,1607 -131,2398 -49,792 -110,1583 -177,2369l-810 9231 -3493 0 2127 -21348 3718 0 2080 11007c13,80 38,204 77,384 193,980 315,1821 366,2522 26,-383 71,-801 142,-1264 67,-462 163,-1020 282,-1671l2099 -10978 3728 0 2118 21348zm2587 0l0 -21348 8446 0 0 4688 -4782 0 0 3702 4509 0 0 4568 -4509 0 0 3613 4782 0 0 4777 -8446 0zm11496 0l0 -21348 3934 0c1536,0 2609,110 3214,329 604,219 1128,587 1568,1100 495,582 877,1328 1144,2229 267,905 399,1901 399,2990 0,1652 -264,2996 -788,4031 -527,1035 -1292,1722 -2298,2060l3760 8609 -4242 0 -3162 -8360 0 8360 -3529 0zm3529 -11256l694 0c810,0 1401,-214 1774,-642 373,-428 559,-1100 559,-2010 0,-1070 -173,-1832 -520,-2284 -351,-453 -932,-677 -1755,-677l-752 0 0 5613zm9497 11256l0 -21348 3799 0 0 21348 -3799 0zm7389 0l0 -21348 3625 0 5213 10978c99,223 263,676 491,1353 232,672 483,1478 759,2413 -74,-885 -129,-1672 -164,-2363 -35,-692 -51,-1304 -51,-1836l0 -10545 3605 0 0 21348 -3605 0 -5210 -11022c-109,-224 -276,-677 -504,-1349 -232,-677 -479,-1473 -749,-2388 74,895 128,1687 164,2378 35,692 51,1304 51,1836l0 10545 -3625 0zm18981 0l0 -16302 -3085 0 0 -5046 9930 0 0 5046 -3085 0 0 16302 -3760 0zm12113 -7972l3737 0 -1404 -7046c-42,-214 -103,-557 -177,-1035 -77,-478 -173,-1090 -292,-1836 -80,522 -161,1025 -241,1503 -77,472 -158,930 -238,1368l-1385 7046zm-5267 7972l4759 -21348 4708 0 4763 21348 -3738 0 -697 -3822 -5338 0 -717 3822 -3740 0zm16111 0l0 -21348 3760 0 0 8300 5013 0 0 -8300 3760 0 0 21348 -3760 0 0 -8689 -5013 0 0 8689 -3760 0zm22062 0l0 -21348 3722 0 0 9699 4358 -9699 4377 0 -5091 10410 5534 10938 -4689 0 -4489 -9579 0 9579 -3722 0zm28015 -10629c0,1537 -183,2975 -547,4314 -363,1343 -893,2543 -1590,3603 -704,1050 -1508,1856 -2411,2428 -903,567 -1841,851 -2812,851 -986,0 -1931,-284 -2831,-851 -900,-572 -1690,-1378 -2375,-2428 -710,-1060 -1247,-2264 -1616,-3618 -367,-1348 -550,-2782 -550,-4299 0,-1528 183,-2961 550,-4309 369,-1344 906,-2548 1616,-3608 685,-1050 1475,-1856 2375,-2428 900,-568 1845,-851 2831,-851 977,0 1922,283 2828,851 907,572 1704,1378 2395,2428 691,1050 1218,2249 1587,3603 367,1348 550,2786 550,4314zm-7366 6270c1041,0 1902,-593 2584,-1777 681,-1189 1022,-2687 1022,-4493 0,-1787 -344,-3279 -1035,-4479 -691,-1194 -1549,-1791 -2571,-1791 -1041,0 -1903,597 -2584,1786 -681,1190 -1022,2687 -1022,4484 0,1826 334,3329 1006,4503 672,1179 1539,1767 2600,1767zm11933 4359l0 -16302 -3085 0 0 -5046 9930 0 0 5046 -3085 0 0 16302 -3760 0zm12113 -7972l3738 0 -1405 -7046c-41,-214 -103,-557 -176,-1035 -78,-478 -174,-1090 -293,-1836 -80,522 -161,1025 -241,1503 -77,472 -157,930 -238,1368l-1385 7046zm-5267 7972l4759 -21348 4708 0 4763 21348 -3737 0 -698 -3822 -5338 0 -716 3822 -3741 0zm22760 -6897c559,980 1109,1712 1652,2199 543,483 1083,727 1623,727 501,0 916,-209 1237,-627 325,-418 485,-946 485,-1588 0,-706 -138,-1254 -417,-1637 -280,-383 -910,-781 -1893,-1189 -1350,-562 -2308,-1299 -2867,-2199 -559,-906 -839,-2145 -839,-3718 0,-2045 441,-3707 1324,-4995 881,-1289 2028,-1931 3433,-1931 761,0 1481,159 2162,473 682,318 1328,796 1938,1438l-1179 4180c-428,-563 -865,-986 -1315,-1274 -446,-284 -890,-428 -1330,-428 -450,0 -816,169 -1099,502 -283,334 -424,767 -424,1289 0,533 122,960 369,1284 248,318 726,627 1434,915l170 75c1533,642 2542,1344 3024,2115 328,522 575,1154 745,1886 171,736 254,1547 254,2443 0,2264 -478,4085 -1439,5459 -961,1378 -2244,2065 -3844,2065 -961,0 -1835,-254 -2626,-757 -787,-507 -1545,-1298 -2272,-2378l1694 -4329zm11078 -14451l3741 0 0 10385c0,1523 26,2623 74,3285 51,666 135,1224 257,1671 141,543 395,961 752,1249 357,284 794,428 1308,428 514,0 948,-144 1305,-428 353,-288 607,-706 755,-1249 122,-447 206,-1005 257,-1671 48,-662 74,-1762 74,-3285l0 -1458 0 -8927 3741 0 0 11286c0,2344 -90,4070 -273,5185 -184,1110 -489,2060 -923,2851 -469,861 -1115,1513 -1938,1946 -822,433 -1819,647 -2992,647 -1182,0 -2178,-214 -2998,-647 -819,-433 -1469,-1085 -1944,-1946 -428,-791 -733,-1741 -919,-2851 -184,-1115 -277,-2841 -277,-5185l0 -2214 0 -9072zm15681 21348l0 -21348 3933 0c1536,0 2610,110 3214,329 604,219 1128,587 1568,1100 495,582 877,1328 1144,2229 267,905 399,1901 399,2990 0,1652 -264,2996 -788,4031 -527,1035 -1292,1722 -2297,2060l3760 8609 -4243 0 -3162 -8360 0 8360 -3528 0zm3528 -11256l694 0c810,0 1402,-214 1774,-642 373,-428 560,-1100 560,-2010 0,-1070 -174,-1832 -521,-2284 -350,-453 -932,-677 -1755,-677l-752 0 0 5613zm13048 3284l3738 0 -1404 -7046c-42,-214 -103,-557 -177,-1035 -77,-478 -174,-1090 -293,-1836 -80,522 -160,1025 -241,1503 -77,472 -157,930 -237,1368l-1386 7046zm-5267 7972l4760 -21348 4708 0 4762 21348 -3737 0 -697 -3822 -5338 0 -717 3822 -3741 0zm16111 0l0 -21348 3722 0 0 9699 4357 -9699 4377 0 -5090 10410 5534 10938 -4689 0 -4489 -9579 0 9579 -3722 0zm17859 -7972l3738 0 -1405 -7046c-41,-214 -102,-557 -176,-1035 -77,-478 -174,-1090 -293,-1836 -80,522 -160,1025 -241,1503 -77,472 -157,930 -238,1368l-1385 7046zm-5267 7972l4760 -21348 4708 0 4762 21348 -3737 0 -698 -3822 -5338 0 -716 3822 -3741 0zm16111 0l0 -21348 3934 0c1536,0 2609,110 3213,329 604,219 1128,587 1569,1100 494,582 877,1328 1144,2229 266,905 398,1901 398,2990 0,1652 -263,2996 -787,4031 -527,1035 -1292,1722 -2298,2060l3760 8609 -4242 0 -3162 -8360 0 8360 -3529 0zm3529 -11256l694 0c810,0 1401,-214 1774,-642 373,-428 559,-1100 559,-2010 0,-1070 -174,-1832 -521,-2284 -350,-453 -932,-677 -1754,-677l-752 0 0 5613zm11386 11256l0 -16302 -3085 0 0 -5046 9931 0 0 5046 -3086 0 0 16302 -3760 0zm12113 -7972l3738 0 -1404 -7046c-42,-214 -103,-557 -177,-1035 -77,-478 -174,-1090 -293,-1836 -80,522 -160,1025 -241,1503 -77,472 -157,930 -237,1368l-1386 7046zm-5267 7972l4760 -21348 4708 0 4763 21348 -3738 0 -697 -3822 -5338 0 -717 3822 -3741 0z"/>
 </g>
</svg>
